<svg width="71" height="70" viewBox="0 0 71 70" fill="none" xmlns="http://www.w3.org/2000/svg">
<path d="M8.875 18.2292C8.875 15.7151 9.88796 13.3041 11.691 11.5264C13.4941 9.74869 15.9396 8.75 18.4896 8.75H52.5104C55.0604 8.75 57.5059 9.74869 59.309 11.5264C61.112 13.3041 62.125 15.7151 62.125 18.2292V51.7708C62.125 54.2849 61.112 56.6959 59.309 58.4736C57.5059 60.2513 55.0604 61.25 52.5104 61.25H18.4896C15.9396 61.25 13.4941 60.2513 11.691 58.4736C9.88796 56.6959 8.875 54.2849 8.875 51.7708V18.2292ZM37.7187 22.6042C37.7187 22.024 37.485 21.4676 37.0689 21.0574C36.6528 20.6471 36.0884 20.4167 35.5 20.4167C34.9116 20.4167 34.3472 20.6471 33.9311 21.0574C33.515 21.4676 33.2812 22.024 33.2812 22.6042V32.8125H22.9271C22.3386 32.8125 21.7743 33.043 21.3582 33.4532C20.9421 33.8634 20.7083 34.4198 20.7083 35C20.7083 35.5802 20.9421 36.1366 21.3582 36.5468C21.7743 36.957 22.3386 37.1875 22.9271 37.1875H33.2812V47.3958C33.2812 47.976 33.515 48.5324 33.9311 48.9426C34.3472 49.3529 34.9116 49.5833 35.5 49.5833C36.0884 49.5833 36.6528 49.3529 37.0689 48.9426C37.485 48.5324 37.7187 47.976 37.7187 47.3958V37.1875H48.0729C48.6614 37.1875 49.2257 36.957 49.6418 36.5468C50.0579 36.1366 50.2917 35.5802 50.2917 35C50.2917 34.4198 50.0579 33.8634 49.6418 33.4532C49.2257 33.043 48.6614 32.8125 48.0729 32.8125H37.7187V22.6042Z" fill="#F8F8F8"/>
</svg>
