<svg width="38" height="45" viewBox="0 0 38 45" fill="none" xmlns="http://www.w3.org/2000/svg">
<path d="M27.6786 25C30.2834 25 32.7815 26.0348 34.6234 27.8766C36.4652 29.7185 37.5 32.2166 37.5 34.8214C37.5 37.4262 36.4652 39.9244 34.6234 41.7662C32.7815 43.6081 30.2834 44.6429 27.6786 44.6429C25.0738 44.6429 22.5756 43.6081 20.7338 41.7662C18.8919 39.9244 17.8571 37.4262 17.8571 34.8214C17.8571 32.2166 18.8919 29.7185 20.7338 27.8766C22.5756 26.0348 25.0738 25 27.6786 25ZM17.8571 0C19.6897 -1.43349e-06 21.4522 0.704349 22.78 1.96736C24.1078 3.23038 24.8994 4.95543 24.9911 6.78571L25 7.14286H33.9286C34.3837 7.14336 34.8215 7.31764 35.1524 7.63009C35.4834 7.94253 35.6826 8.36956 35.7092 8.82392C35.7359 9.27828 35.5881 9.72568 35.296 10.0747C35.0038 10.4237 34.5895 10.648 34.1375 10.7018L33.9286 10.7143H32.4125L31.3518 23.8071C28.8899 22.9849 26.2235 23.0114 23.7785 23.8827C21.3336 24.7539 19.2512 26.4194 17.864 28.6132C16.4769 30.807 15.8651 33.4024 16.1264 35.9848C16.3876 38.5672 17.5069 40.9874 19.3054 42.8589L12.0821 42.8571C10.3997 42.8573 8.7789 42.2241 7.54208 41.0835C6.30526 39.943 5.54308 38.3787 5.40714 36.7018L3.3 10.7143H1.78571C1.34833 10.7142 0.926184 10.5536 0.599336 10.263C0.272488 9.97237 0.0636735 9.57188 0.0124999 9.1375L0 8.92857C5.76974e-05 8.49119 0.160636 8.06904 0.451277 7.74219C0.741918 7.41534 1.14241 7.20653 1.57679 7.15536L1.78571 7.14286H10.7143C10.7143 5.24845 11.4668 3.43164 12.8064 2.09209C14.1459 0.752549 15.9627 0 17.8571 0ZM24.5179 30.4L24.3964 30.2964C24.2471 30.1931 24.0699 30.1378 23.8884 30.1378C23.7069 30.1378 23.5296 30.1931 23.3804 30.2964L23.2554 30.4L23.1536 30.525C23.0507 30.6741 22.9956 30.851 22.9956 31.0321C22.9956 31.2133 23.0507 31.3902 23.1536 31.5393L23.2571 31.6643L26.4179 34.8232L23.2607 37.9768L23.1571 38.1018C23.0542 38.2509 22.9991 38.4278 22.9991 38.6089C22.9991 38.7901 23.0542 38.967 23.1571 39.1161L23.2607 39.2411L23.3857 39.3429C23.5348 39.4458 23.7117 39.5009 23.8929 39.5009C24.074 39.5009 24.2509 39.4458 24.4 39.3429L24.525 39.2411L27.6786 36.0857L30.8393 39.2446L30.9625 39.3482C31.1116 39.4511 31.2885 39.5062 31.4696 39.5062C31.6508 39.5062 31.8277 39.4511 31.9768 39.3482L32.1018 39.2446L32.2036 39.1196C32.3065 38.9705 32.3616 38.7937 32.3616 38.6125C32.3616 38.4313 32.3065 38.2545 32.2036 38.1054L32.1018 37.9804L28.9411 34.8232L32.1054 31.6625L32.2089 31.5393C32.3122 31.39 32.3676 31.2128 32.3676 31.0312C32.3676 30.8497 32.3122 30.6725 32.2089 30.5232L32.1054 30.4L31.9821 30.2964C31.8329 30.1931 31.6556 30.1378 31.4741 30.1378C31.2926 30.1378 31.1154 30.1931 30.9661 30.2964L30.8429 30.4L27.6786 33.5607L24.5179 30.4L24.3964 30.2964L24.5196 30.4H24.5179ZM17.8571 3.57143C16.9561 3.57114 16.0883 3.91144 15.4276 4.5241C14.7669 5.13676 14.3622 5.97651 14.2946 6.875L14.2857 7.14286H21.4286L21.4196 6.875C21.3521 5.97651 20.9474 5.13676 20.2867 4.5241C19.626 3.91144 18.7582 3.57114 17.8571 3.57143Z" fill="#eee"/>
</svg>
