<svg width="50" height="50" viewBox="0 0 50 50" fill="none" xmlns="http://www.w3.org/2000/svg">
<path d="M12.5 39.5833C12.5 41.875 14.375 43.75 16.6666 43.75H33.3333C35.625 43.75 37.5 41.875 37.5 39.5833V18.75C37.5 16.4583 35.625 14.5833 33.3333 14.5833H16.6666C14.375 14.5833 12.5 16.4583 12.5 18.75V39.5833ZM37.5 8.33333H32.2916L30.8125 6.85417C30.4375 6.47917 29.8958 6.25 29.3541 6.25H20.6458C20.1041 6.25 19.5625 6.47917 19.1875 6.85417L17.7083 8.33333H12.5C11.3541 8.33333 10.4166 9.27083 10.4166 10.4167C10.4166 11.5625 11.3541 12.5 12.5 12.5H37.5C38.6458 12.5 39.5833 11.5625 39.5833 10.4167C39.5833 9.27083 38.6458 8.33333 37.5 8.33333Z" fill="#333333"/>
</svg>
