<svg width="50" height="50" viewBox="0 0 50 50" fill="none" xmlns="http://www.w3.org/2000/svg">
<path d="M13.5 44.01C14.325 45.1025 15.8925 45.325 16.9975 44.51L20.03 42.27C20.055 42.06 20.0925 41.845 20.145 41.6325L21.0825 37.8875C21.4325 36.4825 22.1575 35.2 23.1825 34.175L35.2575 22.1C36.5356 20.8218 38.249 20.0731 40.0553 20.0036C41.8615 19.934 43.6274 20.5488 45 21.725V13.915C45 10.3725 42.09 7.5 38.5 7.5H11.5C7.91 7.5 5 10.3725 5 13.915V30.69C5 34.235 7.91 37.105 11.5 37.105H13V42.5325C13 43.065 13.175 43.5825 13.5 44.01V44.01Z" fill="#333333"/>
<path d="M37.0175 23.865L24.9425 35.94C24.2397 36.6437 23.7411 37.5251 23.5 38.49L22.5625 42.235C22.4695 42.6077 22.4746 42.998 22.5772 43.3681C22.6798 43.7382 22.8765 44.0755 23.148 44.347C23.4196 44.6186 23.7568 44.8153 24.1269 44.9179C24.497 45.0205 24.8874 45.0255 25.26 44.9325L29.005 43.995C29.97 43.755 30.8525 43.255 31.555 42.55L43.63 30.475C44.0696 30.0421 44.4191 29.5264 44.6584 28.9577C44.8977 28.389 45.0221 27.7786 45.0243 27.1616C45.0266 26.5447 44.9067 25.9333 44.6716 25.3629C44.4365 24.7925 44.0908 24.2743 43.6545 23.8381C43.2181 23.4019 42.6998 23.0564 42.1292 22.8215C41.5587 22.5866 40.9474 22.467 40.3304 22.4695C39.7134 22.472 39.1031 22.5966 38.5345 22.8361C37.9659 23.0756 37.4503 23.4253 37.0175 23.865Z" fill="#333333"/>
</svg>
