<svg width="50" height="50" viewBox="0 0 50 50" fill="none" xmlns="http://www.w3.org/2000/svg">
<path d="M11.7833 42.6646C11.4842 42.9247 11.117 43.0941 10.725 43.1528C10.333 43.2116 9.93237 43.1573 9.57014 42.9963C9.20791 42.8353 8.89913 42.5743 8.68005 42.244C8.46096 41.9136 8.34067 41.5276 8.33329 41.1313V36.4584C7.22822 36.4584 6.16842 36.0194 5.38701 35.238C4.60561 34.4566 4.16663 33.3968 4.16663 32.2917V17.7084C4.16663 16.6033 4.60561 15.5435 5.38701 14.7621C6.16842 13.9807 7.22822 13.5417 8.33329 13.5417H31.25C32.355 13.5417 33.4148 13.9807 34.1962 14.7621C34.9776 15.5435 35.4166 16.6033 35.4166 17.7084V32.2917C35.4166 33.3968 34.9776 34.4566 34.1962 35.238C33.4148 36.0194 32.355 36.4584 31.25 36.4584H20.8395L11.7833 42.6646ZM37.5 26.0771C37.4933 26.3333 37.4933 26.5897 37.5 26.8459V26.075C37.5104 25.8521 37.5125 23.0605 37.5083 17.7021C37.5066 16.0456 36.8474 14.4575 35.6755 13.2867C34.5036 12.116 32.9148 11.4584 31.2583 11.4584H14.5833V9.37504C14.5833 8.26997 15.0223 7.21016 15.8037 6.42876C16.5851 5.64736 17.6449 5.20837 18.75 5.20837H41.6666C42.7717 5.20837 43.8315 5.64736 44.6129 6.42876C45.3943 7.21016 45.8333 8.26997 45.8333 9.37504V23.9584C45.8333 25.0634 45.3943 26.1232 44.6129 26.9047C43.8315 27.6861 42.7717 28.125 41.6666 28.125V32.798C41.6592 33.1943 41.539 33.5803 41.3199 33.9106C41.1008 34.241 40.792 34.502 40.4298 34.663C40.0675 34.8239 39.6669 34.8783 39.2749 34.8195C38.8829 34.7608 38.5157 34.5914 38.2166 34.3313L37.5 33.8396V26.0771Z" fill="#F8F8F8"/>
</svg>
