<svg width="42" height="46" viewBox="0 0 42 46" fill="none" xmlns="http://www.w3.org/2000/svg">
<path d="M40.8547 29.1453L36.625 24.9156V19.3125C36.6202 15.4404 35.1797 11.7076 32.5822 8.83591C29.9848 5.96424 26.4147 4.15771 22.5625 3.76562V0.5625H19.4375V3.76562C15.5853 4.15771 12.0153 5.96424 9.41776 8.83591C6.82028 11.7076 5.37985 15.4404 5.375 19.3125V24.9156L1.14531 29.1453C0.852267 29.4383 0.687588 29.8356 0.6875 30.25V34.9375C0.6875 35.3519 0.85212 35.7493 1.14515 36.0424C1.43817 36.3354 1.8356 36.5 2.25 36.5H13.1875V38.0625C13.1875 40.1345 14.0106 42.1216 15.4757 43.5868C16.9409 45.0519 18.928 45.875 21 45.875C23.072 45.875 25.0591 45.0519 26.5243 43.5868C27.9894 42.1216 28.8125 40.1345 28.8125 38.0625V36.5H39.75C40.1644 36.5 40.5618 36.3354 40.8549 36.0424C41.1479 35.7493 41.3125 35.3519 41.3125 34.9375V30.25C41.3124 29.8356 41.1477 29.4383 40.8547 29.1453ZM25.6875 38.0625C25.6875 39.3057 25.1936 40.498 24.3146 41.3771C23.4355 42.2561 22.2432 42.75 21 42.75C19.7568 42.75 18.5645 42.2561 17.6854 41.3771C16.8064 40.498 16.3125 39.3057 16.3125 38.0625V36.5H25.6875V38.0625Z" fill="#AE4C4C"/>
</svg>
