<svg width="79" height="72" viewBox="0 0 79 72" fill="none" xmlns="http://www.w3.org/2000/svg">
<g clip-path="url(#clip0_2_11)">
<path d="M39.5 16.5C42.5555 16.5 45.4859 17.6062 47.6465 19.5754C49.807 21.5445 51.0208 24.2152 51.0208 27C51.0208 29.7848 49.807 32.4555 47.6465 34.4246C45.4859 36.3938 42.5555 37.5 39.5 37.5C36.4445 37.5 33.5141 36.3938 31.3535 34.4246C29.193 32.4555 27.9792 29.7848 27.9792 27C27.9792 24.2152 29.193 21.5445 31.3535 19.5754C33.5141 17.6062 36.4445 16.5 39.5 16.5ZM16.4583 24C18.3017 24 20.0133 24.45 21.4946 25.26C21.0008 29.55 22.3833 33.81 25.2142 37.14C23.5683 40.02 20.2767 42 16.4583 42C13.8393 42 11.3276 41.0518 9.47565 39.364C7.62373 37.6761 6.58333 35.3869 6.58333 33C6.58333 30.6131 7.62373 28.3239 9.47565 26.636C11.3276 24.9482 13.8393 24 16.4583 24ZM62.5417 24C65.1607 24 67.6724 24.9482 69.5243 26.636C71.3763 28.3239 72.4167 30.6131 72.4167 33C72.4167 35.3869 71.3763 37.6761 69.5243 39.364C67.6724 41.0518 65.1607 42 62.5417 42C58.7233 42 55.4317 40.02 53.7858 37.14C56.6558 33.7633 57.9879 29.5086 57.5054 25.26C58.9867 24.45 60.6983 24 62.5417 24ZM18.1042 54.75C18.1042 48.54 27.6829 43.5 39.5 43.5C51.3171 43.5 60.8958 48.54 60.8958 54.75V60H18.1042V54.75ZM0 60V55.5C0 51.33 6.22125 47.82 14.6479 46.8C12.7058 48.84 11.5208 51.66 11.5208 54.75V60H0ZM79 60H67.4792V54.75C67.4792 51.66 66.2942 48.84 64.3521 46.8C72.7787 47.82 79 51.33 79 55.5V60Z" fill="#F8F8F8"/>
</g>
<defs>
<clipPath id="clip0_2_11">
<rect width="79" height="72" fill="white"/>
</clipPath>
</defs>
</svg>
